REM DIRINDEX 1\2,1\3,1\4,1\5
REM DIRNAME folder01,folder02,folder03,folder04,folder05
TITLE ""
FILE "109.mp3" MP3
  TRACK 01 AUDIO
    TITLE "0:"
    INDEX 01 00:00:00
  TRACK 02 AUDIO
    TITLE "5:cjc046_2423"
    INDEX 01 00:00:15
  TRACK 03 AUDIO
    TITLE "0:"
    INDEX 01 00:01:73
  TRACK 04 AUDIO
    TITLE "2:cjc046_2424"
    INDEX 01 00:02:45
  TRACK 05 AUDIO
    TITLE "0:"
    INDEX 01 00:03:72
  TRACK 06 AUDIO
    TITLE "3:cjc046_2425"
    INDEX 01 00:04:13
  TRACK 07 AUDIO
    TITLE "0:"
    INDEX 01 00:05:48
  TRACK 08 AUDIO
    TITLE "4:cjc046_2426"
    INDEX 01 00:05:65
  TRACK 09 AUDIO
    TITLE "0:"
    INDEX 01 00:07:17
  TRACK 10 AUDIO
    TITLE "2:cjc046_2427"
    INDEX 01 00:08:26
  TRACK 11 AUDIO
    TITLE "0:"
    INDEX 01 00:09:28
  TRACK 12 AUDIO
    TITLE "3:cjc046_2428"
    INDEX 01 00:09:57
  TRACK 13 AUDIO
    TITLE "0:"
    INDEX 01 00:11:05
  TRACK 14 AUDIO
    TITLE "4:cjc046_2429"
    INDEX 01 00:11:21
  TRACK 15 AUDIO
    TITLE "0:"
    INDEX 01 00:12:24
  TRACK 16 AUDIO
    TITLE "2:cjc046_2430"
    INDEX 01 00:13:30
  TRACK 17 AUDIO
    TITLE "0:"
    INDEX 01 00:14:39
  TRACK 18 AUDIO
    TITLE "3:cjc046_2431"
    INDEX 01 00:14:66
  TRACK 19 AUDIO
    TITLE "0:"
    INDEX 01 00:16:14
  TRACK 20 AUDIO
    TITLE "4:cjc046_2432"
    INDEX 01 00:16:24
  TRACK 21 AUDIO
    TITLE "0:"
    INDEX 01 00:17:35
  TRACK 22 AUDIO
    TITLE "2:cjc046_2433"
    INDEX 01 00:18:44
  TRACK 23 AUDIO
    TITLE "0:"
    INDEX 01 00:19:44
  TRACK 24 AUDIO
    TITLE "3:cjc046_2434"
    INDEX 01 00:19:71
  TRACK 25 AUDIO
    TITLE "0:"
    INDEX 01 00:21:00
  TRACK 26 AUDIO
    TITLE "4:cjc046_2435"
    INDEX 01 00:21:15
  TRACK 27 AUDIO
    TITLE "0:"
    INDEX 01 00:22:17
  TRACK 28 AUDIO
    TITLE "2:cjc046_2436"
    INDEX 01 00:23:28
  TRACK 29 AUDIO
    TITLE "0:"
    INDEX 01 00:24:39
  TRACK 30 AUDIO
    TITLE "3:cjc046_2437"
    INDEX 01 00:24:65
  TRACK 31 AUDIO
    TITLE "0:"
    INDEX 01 00:26:09
  TRACK 32 AUDIO
    TITLE "4:cjc046_2438"
    INDEX 01 00:26:20
  TRACK 33 AUDIO
    TITLE "0:"
    INDEX 01 00:27:30
  TRACK 34 AUDIO
    TITLE "2:cjc046_2439"
    INDEX 01 00:28:39
  TRACK 35 AUDIO
    TITLE "0:"
    INDEX 01 00:29:56
  TRACK 36 AUDIO
    TITLE "3:cjc046_2440"
    INDEX 01 00:30:01
  TRACK 37 AUDIO
    TITLE "0:"
    INDEX 01 00:31:24
  TRACK 38 AUDIO
    TITLE "4:cjc046_2441"
    INDEX 01 00:31:35
  TRACK 39 AUDIO
    TITLE "0:"
    INDEX 01 00:32:54
  TRACK 40 AUDIO
    TITLE "2:cjc046_2442"
    INDEX 01 00:33:60
  TRACK 41 AUDIO
    TITLE "0:"
    INDEX 01 00:34:65
  TRACK 42 AUDIO
    TITLE "3:cjc046_2443"
    INDEX 01 00:35:12
  TRACK 43 AUDIO
    TITLE "0:"
    INDEX 01 00:36:19
  TRACK 44 AUDIO
    TITLE "4:cjc046_2444"
    INDEX 01 00:36:31
  TRACK 45 AUDIO
    TITLE "0:"
    INDEX 01 00:37:34
  TRACK 46 AUDIO
    TITLE "2:cjc046_2445"
    INDEX 01 00:38:39
  TRACK 47 AUDIO
    TITLE "0:"
    INDEX 01 00:39:41
  TRACK 48 AUDIO
    TITLE "3:cjc046_2446"
    INDEX 01 00:39:70
  TRACK 49 AUDIO
    TITLE "0:"
    INDEX 01 00:41:00
  TRACK 50 AUDIO
    TITLE "4:cjc046_2447"
    INDEX 01 00:41:14
  TRACK 51 AUDIO
    TITLE "0:"
    INDEX 01 00:42:18
  TRACK 52 AUDIO
    TITLE "2:cjc046_2448"
    INDEX 01 00:43:21
  TRACK 53 AUDIO
    TITLE "0:"
    INDEX 01 00:44:44
  TRACK 54 AUDIO
    TITLE "3:cjc046_2449"
    INDEX 01 00:44:65
  TRACK 55 AUDIO
    TITLE "0:"
    INDEX 01 00:46:07
  TRACK 56 AUDIO
    TITLE "4:cjc046_2450"
    INDEX 01 00:46:15
  TRACK 57 AUDIO
    TITLE "0:"
    INDEX 01 00:47:42
  TRACK 58 AUDIO
    TITLE "2:cjc046_2451"
    INDEX 01 00:48:51
  TRACK 59 AUDIO
    TITLE "0:"
    INDEX 01 00:49:55
  TRACK 60 AUDIO
    TITLE "3:cjc046_2452"
    INDEX 01 00:49:67
  TRACK 61 AUDIO
    TITLE "0:"
    INDEX 01 00:52:67
  TRACK 62 AUDIO
    TITLE "4:cjc046_2453"
    INDEX 01 00:53:08
  TRACK 63 AUDIO
    TITLE "0:"
    INDEX 01 00:54:09
  TRACK 64 AUDIO
    TITLE "2:cjc046_2454"
    INDEX 01 00:55:12
  TRACK 65 AUDIO
    TITLE "0:"
    INDEX 01 00:56:14
  TRACK 66 AUDIO
    TITLE "3:cjc046_2455"
    INDEX 01 00:56:45
  TRACK 67 AUDIO
    TITLE "0:"
    INDEX 01 00:57:66
  TRACK 68 AUDIO
    TITLE "4:cjc046_2456"
    INDEX 01 00:58:01
  TRACK 69 AUDIO
    TITLE "0:"
    INDEX 01 00:59:06
  TRACK 70 AUDIO
    TITLE "2:cjc046_2457"
    INDEX 01 01:00:13
  TRACK 71 AUDIO
    TITLE "0:"
    INDEX 01 01:01:25
  TRACK 72 AUDIO
    TITLE "3:cjc046_2458"
    INDEX 01 01:01:52
  TRACK 73 AUDIO
    TITLE "0:"
    INDEX 01 01:03:16
  TRACK 74 AUDIO
    TITLE "4:cjc046_2459"
    INDEX 01 01:03:24
  TRACK 75 AUDIO
    TITLE "0:"
    INDEX 01 01:04:35
  TRACK 76 AUDIO
    TITLE "2:cjc046_2460"
    INDEX 01 01:05:46
  TRACK 77 AUDIO
    TITLE "0:"
    INDEX 01 01:06:45
  TRACK 78 AUDIO
    TITLE "3:cjc046_2461"
    INDEX 01 01:06:63
  TRACK 79 AUDIO
    TITLE "0:"
    INDEX 01 01:07:53
  TRACK 80 AUDIO
    TITLE "4:cjc046_2462"
    INDEX 01 01:07:68
  TRACK 81 AUDIO
    TITLE "0:"
    INDEX 01 01:08:66
  TRACK 82 AUDIO
    TITLE "2:cjc046_2463"
    INDEX 01 01:09:71
  TRACK 83 AUDIO
    TITLE "0:"
    INDEX 01 01:11:05
  TRACK 84 AUDIO
    TITLE "3:cjc046_2464"
    INDEX 01 01:11:29
  TRACK 85 AUDIO
    TITLE "0:"
    INDEX 01 01:12:48
  TRACK 86 AUDIO
    TITLE "4:cjc046_2465"
    INDEX 01 01:12:60
  TRACK 87 AUDIO
    TITLE "0:"
    INDEX 01 01:13:67
  TRACK 88 AUDIO
    TITLE "2:cjc046_2466"
    INDEX 01 01:15:05
  TRACK 89 AUDIO
    TITLE "0:"
    INDEX 01 01:16:12
  TRACK 90 AUDIO
    TITLE "3:cjc046_2467"
    INDEX 01 01:16:34
  TRACK 91 AUDIO
    TITLE "0:"
    INDEX 01 01:17:43
  TRACK 92 AUDIO
    TITLE "4:cjc046_2468"
    INDEX 01 01:17:57
  TRACK 93 AUDIO
    TITLE "0:"
    INDEX 01 01:18:64
  TRACK 94 AUDIO
    TITLE "2:cjc046_2469"
    INDEX 01 01:19:72
  TRACK 95 AUDIO
    TITLE "0:"
    INDEX 01 01:21:16
  TRACK 96 AUDIO
    TITLE "3:cjc046_2470"
    INDEX 01 01:21:41
  TRACK 97 AUDIO
    TITLE "0:"
    INDEX 01 01:22:50
  TRACK 98 AUDIO
    TITLE "4:cjc046_2471"
    INDEX 01 01:22:60
  TRACK 99 AUDIO
    TITLE "0:"
    INDEX 01 01:24:06
